<?xml version="1.0" standalone="no"?>
<!DOCTYPE svg PUBLIC "-//W3C//DTD SVG 20010904//EN"
 "http://www.w3.org/TR/2001/REC-SVG-20010904/DTD/svg10.dtd">
<svg version="1.0" xmlns="http://www.w3.org/2000/svg"
 width="192.000000pt" height="192.000000pt" viewBox="0 0 192.000000 192.000000"
 preserveAspectRatio="xMidYMid meet">

<g transform="translate(0.000000,192.000000) scale(0.100000,-0.100000)"
fill="#000000" stroke="none">
<path d="M750 1796 c-162 -42 -286 -113 -403 -231 -162 -163 -247 -371 -247
-603 0 -177 50 -338 149 -485 155 -229 434 -377 708 -377 102 0 256 33 347 74
256 116 434 337 497 619 72 324 -75 687 -358 878 -89 60 -159 92 -277 124
-122 34 -290 34 -416 1z m444 -364 c113 -42 191 -102 248 -192 29 -45 73 -169
63 -178 -2 -3 -25 14 -51 38 -53 49 -150 95 -243 117 -42 9 -152 17 -306 22
-230 6 -242 7 -295 32 -30 15 -72 43 -93 63 -40 40 -80 109 -69 120 4 4 160 6
347 4 321 -4 343 -5 399 -26z m132 -301 c114 -54 171 -124 181 -225 15 -145
-81 -325 -216 -404 -101 -59 -136 -65 -398 -70 l-243 -4 0 257 0 258 42 -6
c53 -7 117 -52 145 -102 18 -31 23 -56 23 -114 l0 -73 128 4 c137 5 181 18
237 73 55 56 70 101 70 215 0 106 -2 113 -53 213 -7 14 24 6 84 -22z"/>
</g>
</svg>
